Coordinates
version=1
nRows=9
nColumns=36
inDegrees=yes

Units are S.I. units (second, meters, Newtons, ...)
If the header above contains a line with 'inDegrees', this indicates whether rotational values are in degrees (yes) or radians (no).

endheader
time	pelvis_tilt	pelvis_list	pelvis_rotation	pelvis_tx	pelvis_ty	pelvis_tz	hip_flexion_r	hip_adduction_r	hip_rotation_r	knee_angle_r	knee_angle_r_beta	ankle_angle_r	subtalar_angle_r	mtp_angle_r	hip_flexion_l	hip_adduction_l	hip_rotation_l	knee_angle_l	knee_angle_l_beta	ankle_angle_l	subtalar_angle_l	mtp_angle_l	lumbar_extension	lumbar_bending	lumbar_rotation	arm_flex_r	arm_add_r	arm_rot_r	elbow_flex_r	pro_sup_r	arm_flex_l	arm_add_l	arm_rot_l	elbow_flex_l	pro_sup_l
      1.06666670	     -4.54822592	     -2.85189485	      1.98125645	      0.64260540	      0.99637432	     -0.20713727	     -1.29280428	      2.99414074	     -5.90017969	      0.38450442	      0.00671087	      4.82827588	    -20.10158614	     -7.49939391	     -3.10620718	     -5.34433159	     -9.96100335	      0.94438099	      0.01648256	     11.01797790	     -9.09188815	     -7.49939391	     -2.30073802	      3.27784691	     -0.24268473	      3.00783800	    -11.45085007	     26.43856669	     25.92954510	     77.33330771	     -1.48805914	    -11.15948175	     24.91489781	     22.86341839	     72.78488255
      1.08333330	     -4.49515166	     -2.80707311	      2.10402957	      0.64590413	      0.99882131	     -0.20942545	     -1.37067822	      2.88387694	     -5.72048569	      0.35450116	      0.00618721	      4.86886947	    -20.07005354	     -7.49939462	     -3.16453991	     -5.28308652	     -9.79416303	      0.94627660	      0.01651564	     10.97429196	     -9.02206436	     -7.49939462	     -2.03812352	      3.33372540	     -0.33722282	      3.01045961	    -11.35264412	     26.45842850	     25.89446256	     77.35332962	     -1.23300479	    -10.93313488	     24.94504802	     22.93943716	     72.79336503
      1.10000000	     -4.57523352	     -2.67883819	      2.20334739	      0.64628245	      0.99881794	     -0.20936646	     -1.33259057	      2.70054164	     -5.56803439	      0.32693148	      0.00570603	      4.79155385	    -20.26658220	     -7.49947097	     -3.15396215	     -5.11611257	     -9.36698794	      0.88084216	      0.01537360	     10.65200996	     -9.37718075	     -7.49947097	     -1.41311406	      3.21986622	     -0.36296387	      2.99430981	    -11.09761644	     26.54441819	     25.23812231	     76.36435370	     -0.85138750	    -10.70161971	     25.40378975	     22.67164886	     71.94126985
      1.11666670	     -4.61601594	     -2.56011861	      2.21367260	      0.64966444	      0.99899731	     -0.20627999	     -1.36026298	      2.60926296	     -5.47574773	      0.30758494	      0.00536837	      4.75611942	    -20.21873366	     -7.49950245	     -3.14992217	     -5.04186827	     -9.19504044	      0.90411462	      0.01577978	     10.46767275	     -9.47504931	     -7.49950245	     -0.81102641	      3.11048677	     -0.34944571	      3.24044543	    -10.96402659	     27.95144761	     24.25803453	     77.65975969	     -0.31296612	    -10.88338658	     27.75898352	     22.81023492	     72.66858271
      1.13333330	     -4.57827504	     -2.49393430	      2.12737025	      0.64593559	      1.00065544	     -0.20373163	     -1.40918702	      2.61478786	     -5.41426383	      0.29620255	      0.00516971	      4.74179125	    -20.16585248	     -7.49950297	     -3.24165484	     -5.03598233	     -9.17940709	      0.92845630	      0.01620462	     10.40638822	     -9.43918066	     -7.49950297	     -0.47463427	      3.05209600	     -0.43505105	      3.40971640	    -10.86674944	     27.96613539	     24.33886986	     77.67612924	      0.14372555	    -10.77845134	     27.75318917	     22.99504010	     72.67222247
      1.15000000	     -4.52787025	     -2.35981351	      2.02535034	      0.64579540	      1.00212476	     -0.20320516	     -1.43324537	      2.57481901	     -5.30841139	      0.27450296	      0.00479098	      4.85335754	    -19.86560182	     -7.49955368	     -3.32925965	     -4.95210893	     -9.11254238	      0.93026970	      0.01623627	     10.05730568	     -9.60054916	     -7.49955368	     -0.37488429	      2.81775079	     -0.02413633	      3.49565159	    -10.90575558	     28.28012174	     24.63517836	     77.06921091	      0.72962531	    -11.01943623	     28.15312431	     24.32490407	     72.16145189
      1.16666670	     -4.45253976	     -2.25810754	      2.05937736	      0.64956901	      1.00228072	     -0.20542162	     -1.52090913	      2.52406563	     -5.37186388	      0.25536939	      0.00445704	      4.97882632	    -19.59927388	     -7.49961879	     -3.47400303	     -4.87875752	     -9.18020051	      0.93949786	      0.01639733	     10.03331323	     -9.27623378	     -7.49961879	     -0.13669497	      2.68591831	      0.02963474	      3.72760018	    -10.95464823	     28.57646311	     24.63804819	     76.35376403	      1.23129067	    -11.13432837	     28.62043695	     25.25014319	     71.59947918
      1.18333330	     -4.40714314	     -2.19404088	      2.01471218	      0.65247460	      1.00186187	     -0.20264850	     -1.60877801	      2.51252410	     -5.30386460	      0.23712611	      0.00413863	      5.06585893	    -19.53544810	     -7.49970130	     -3.62864335	     -4.84973532	     -9.26189511	      0.92782019	      0.01619352	     10.04145049	     -9.13636759	     -7.49970130	      0.23227713	      2.54546836	      0.11236763	      3.99266091	    -11.12056385	     29.92742358	     24.69626714	     77.15890212	      1.77247994	    -11.52598964	     30.32651442	     26.44815386	     71.98265226
      1.20000000	     -4.41679199	     -2.16446328	      1.99744519	      0.65240447	      1.00152368	     -0.20267420	     -1.65501052	      2.51356688	     -5.55545269	      0.22540048	      0.00393398	      5.34719568	    -19.04261346	     -7.49973341	     -3.70443991	     -4.84468505	     -9.22525498	      0.86769067	      0.01514406	      9.68199170	     -9.29109453	     -7.49973341	      0.62346122	      2.42857443	      0.13040100	      4.05536049	    -11.19841589	     29.78388964	     25.14000770	     76.41842803	      2.28302748	    -11.66724659	     30.27002967	     27.77802544	     71.47513551
